<svg width="24" height="24" version="1.1" viewBox="0 0 24 24" xmlns="http://www.w3.org/2000/svg">
 <path d="m12 2.5784c1.8895 0 3.426 1.5374 3.426 3.426 0 1.8886-1.5366 3.426-3.426 3.426s-3.426-1.5374-3.426-3.426c0-1.8886 1.5366-3.426 3.426-3.426zm0-0.85651c-2.3657 0-4.2826 1.9169-4.2826 4.2826 0 2.3657 1.9169 4.2826 4.2826 4.2826 2.3657 0 4.2826-1.9169 4.2826-4.2826 0-2.3657-1.9169-4.2826-4.2826-4.2826zm0.21413 6.4016v0.45053h-0.42826v-0.4274c-0.44367-0.0077087-0.90191-0.11306-1.2848-0.31091l0.19528-0.70405c0.40941 0.15931 0.95415 0.32804 1.3807 0.23211 0.49164-0.1122 0.59271-0.6184 0.04882-0.86165-0.39828-0.18586-1.618-0.34432-1.618-1.3884 0-0.58414 0.44539-1.1066 1.2779-1.2214v-0.45738h0.42826v0.43596c0.3092 0.00857 0.6578 0.062525 1.0458 0.17987l-0.15503 0.70577c-0.3289-0.11563-0.69206-0.22098-1.0467-0.19871-0.63724 0.03683-0.69377 0.58928-0.24839 0.82054 0.73232 0.34432 1.689 0.59956 1.689 1.5177 0.0017 0.73574-0.57558 1.1272-1.2848 1.2274zm-0.21413 5.5896c-2.3657 0-4.2826 1.9169-4.2826 4.2826s1.9169 4.2826 4.2826 4.2826c2.3657 0 4.2826-1.9169 4.2826-4.2826s-1.9169-4.2826-4.2826-4.2826zm0.84709 3.6933-0.06424 0.39228h-1.5203c-0.01028 0.13105-0.0094 0.26209 0.0017 0.39314h1.4518l-0.06424 0.39228h-1.3182c0.16188 0.59956 0.57986 1.0826 1.2642 1.0826 0.19785 0 0.40256-0.03683 0.60812-0.11049l0.17302 0.63382c-0.28864 0.10621-0.58414 0.16102-0.87792 0.16102-1.2608 0-1.9734-0.81454-2.1764-1.7661h-0.61667l0.064238-0.39228h0.49678c-0.0086-0.13105-0.0086-0.26209 0.0017-0.39314h-0.43167l0.064238-0.39228h0.42483c0.20642-0.95158 0.90962-1.7661 2.0796-1.7661 0.31862 0 0.66465 0.05482 1.0287 0.16274l-0.14989 0.62097c-0.28436-0.08137-0.53104-0.12162-0.75287-0.12162-0.64752 0-1.0535 0.49421-1.2077 1.104h1.5212zm7.3557-7.6444c1.0561 2.0145 1.3259 5.8251-2.2141 8.3561 0.01627-0.75544-0.09679-1.4612-0.37344-2.2029 1.8098-1.4938 1.7567-3.6522 1.0218-5.3395l-2.0359 1.0586 1.367-4.4384 4.31 1.4878zm-16.406 4.8059c-1.0561-2.0145-1.2505-6.1206 2.2886-8.6516-0.016274 0.75544 0.097642 1.4621 0.37344 2.2029-1.8107 1.4946-1.8321 3.9477-1.0972 5.6358l2.0359-1.0586-1.367 4.4384-4.3091-1.4886z" fill="#ffbc00" stroke-width=".85651"/>
</svg>
